<svg width="53" height="52" viewBox="0 0 53 52" fill="none" xmlns="http://www.w3.org/2000/svg">
<g id="Group 380">
<path id="Vector" d="M19 21.5C21.8795 21.5 24.641 20.3674 26.6772 18.3514C28.7133 16.3354 29.8571 13.6011 29.8571 10.75C29.8571 7.89892 28.7133 5.16462 26.6772 3.1486C24.641 1.13259 21.8795 0 19 0C16.1205 0 13.3589 1.13259 11.3228 3.1486C9.28673 5.16462 8.14286 7.89892 8.14286 10.75C8.14286 13.6011 9.28673 16.3354 11.3228 18.3514C13.3589 20.3674 16.1205 21.5 19 21.5ZM15.1237 25.5312C6.76875 25.5312 0 32.2332 0 40.5057C0 41.883 1.12813 43 2.5192 43H35.4808C36.8719 43 38 41.883 38 40.5057C38 32.2332 31.2312 25.5312 22.8763 25.5312H15.1237Z" fill="#2F80ED"/>
<rect id="Rectangle 2" x="30" y="31" width="10" height="14" fill="white"/>
<path id="Vector_2" d="M28.7081 30.8284L28.708 30.8287L27.1243 35.3761C25.859 36.0834 25 37.4415 25 39V46.0714V48.4286C25 49.8447 26.1406 51 27.5625 51H29.125C30.5469 51 31.6875 49.8447 31.6875 48.4286V47.0714H45.3125V48.4286C45.3125 49.8447 46.4531 51 47.875 51H49.4375C50.8594 51 52 49.8447 52 48.4286V46.0714V39C52 37.4415 51.141 36.0834 49.8757 35.3761L48.292 30.8287L48.2919 30.8284C47.494 28.5399 45.3454 27 42.9238 27H34.0762C31.6546 27 29.506 28.5399 28.7081 30.8284ZM44.2662 34.8571H32.7338L33.5455 32.5237C33.5456 32.5235 33.5457 32.5233 33.5458 32.5231C33.6266 32.2926 33.8412 32.1429 34.0762 32.1429H42.9238C43.159 32.1429 43.3737 32.2928 43.4544 32.5237L44.2662 34.8571ZM31.0832 40.1653C31.1894 40.2721 31.25 40.418 31.25 40.5714C31.25 40.7248 31.1894 40.8708 31.0832 40.9775C30.9773 41.084 30.8348 41.1429 30.6875 41.1429C30.5402 41.1429 30.3977 41.084 30.2918 40.9775C30.1856 40.8708 30.125 40.7248 30.125 40.5714C30.125 40.418 30.1856 40.2721 30.2918 40.1653C30.3977 40.0588 30.5402 40 30.6875 40C30.8348 40 30.9773 40.0588 31.0832 40.1653ZM46.7082 40.9775C46.6023 41.084 46.4598 41.1429 46.3125 41.1429C46.1652 41.1429 46.0227 41.084 45.9168 40.9775C45.8106 40.8708 45.75 40.7248 45.75 40.5714C45.75 40.418 45.8106 40.2721 45.9168 40.1653C46.0227 40.0588 46.1652 40 46.3125 40C46.4598 40 46.6023 40.0588 46.7082 40.1653C46.8144 40.2721 46.875 40.418 46.875 40.5714C46.875 40.7248 46.8144 40.8708 46.7082 40.9775Z" fill="#2F80ED" stroke="white" stroke-width="2"/>
</g>
</svg>
