<svg width="26" height="27" viewBox="0 0 26 27" fill="none" xmlns="http://www.w3.org/2000/svg">
<rect y="0.941895" width="25.971" height="25.971" rx="3.24638" fill="#B3D3FF"/>
<path fill-rule="evenodd" clip-rule="evenodd" d="M8.98069 20.4355C8.70536 20.4355 8.48008 20.2102 8.48008 19.9349V7.92038C8.48008 7.64505 8.70536 7.41978 8.98069 7.41978H13.9867V9.9228C13.9867 10.4766 14.4341 10.924 14.9879 10.924H17.491V19.9349C17.491 20.2102 17.2657 20.4355 16.9904 20.4355H8.98069ZM8.98069 5.91797C7.87623 5.91797 6.97827 6.81593 6.97827 7.92038V19.9349C6.97827 21.0393 7.87623 21.9373 8.98069 21.9373H16.9904C18.0948 21.9373 18.9928 21.0393 18.9928 19.9349V10.7519C18.9928 10.22 18.7831 9.71004 18.4077 9.33459L15.573 6.50305C15.1976 6.1276 14.6907 5.91797 14.1588 5.91797H8.98069Z" fill="white"/>
<path d="M10.5826 12.225C10.8254 12.225 11.0583 12.1353 11.2299 11.9757C11.4016 11.8161 11.498 11.5997 11.498 11.374C11.498 11.1483 11.4016 10.9318 11.2299 10.7722C11.0583 10.6126 10.8254 10.5229 10.5826 10.5229C10.3399 10.5229 10.107 10.6126 9.93537 10.7722C9.7637 10.9318 9.66726 11.1483 9.66726 11.374C9.66726 11.5997 9.7637 11.8161 9.93537 11.9757C10.107 12.1353 10.3399 12.225 10.5826 12.225ZM10.2558 12.5441C9.5514 12.5441 8.98071 13.0747 8.98071 13.7296C8.98071 13.8386 9.07583 13.9271 9.19311 13.9271H11.9722C12.0895 13.9271 12.1846 13.8386 12.1846 13.7296C12.1846 13.0747 11.6139 12.5441 10.9095 12.5441H10.2558Z" fill="white"/>
<path d="M10.5826 17.0312C10.8254 17.0312 11.0583 16.9415 11.2299 16.7819C11.4016 16.6223 11.498 16.4058 11.498 16.1801C11.498 15.9544 11.4016 15.738 11.2299 15.5784C11.0583 15.4188 10.8254 15.3291 10.5826 15.3291C10.3399 15.3291 10.107 15.4188 9.93537 15.5784C9.7637 15.738 9.66726 15.9544 9.66726 16.1801C9.66726 16.4058 9.7637 16.6223 9.93537 16.7819C10.107 16.9415 10.3399 17.0312 10.5826 17.0312ZM10.2558 17.3503C9.5514 17.3503 8.98071 17.8809 8.98071 18.5357C8.98071 18.6448 9.07583 18.7332 9.19311 18.7332H11.9722C12.0895 18.7332 12.1846 18.6448 12.1846 18.5357C12.1846 17.8809 11.6139 17.3503 10.9095 17.3503H10.2558Z" fill="white"/>
<rect x="13" y="13.3257" width="4.20507" height="0.600725" rx="0.300362" fill="white"/>
<rect x="13" y="12" width="4.20507" height="0.600725" rx="0.300362" fill="white"/>
<rect x="13" y="18.1309" width="4.20507" height="0.600725" rx="0.300362" fill="white"/>
<rect x="13" y="17" width="4.20507" height="0.600725" rx="0.300362" fill="white"/>
</svg>
