<svg width="21" height="20" viewBox="0 0 21 20" fill="none" xmlns="http://www.w3.org/2000/svg">
<g clip-path="url(#clip0_345_2002)">
<path d="M13.7741 17.0625H9.83658C9.66253 17.0625 9.49561 17.1316 9.37254 17.2547C9.24947 17.3778 9.18033 17.5447 9.18033 17.7187C9.18033 17.8928 9.24947 18.0597 9.37254 18.1828C9.49561 18.3059 9.66253 19.0312 9.83658 19.0312L11.8053 19.6875L13.7741 19.0312C13.9481 19.0312 14.115 18.3059 14.2381 18.1828C14.3612 18.0597 14.4303 17.8928 14.4303 17.7187C14.4303 17.5447 14.3612 17.3778 14.2381 17.2547C14.115 17.1316 13.9481 17.0625 13.7741 17.0625ZM19.7328 11.4319L18.3678 10.7756V6.5625C18.3678 4.82202 17.6764 3.15282 16.4457 1.92211C15.215 0.691404 13.5458 0 11.8053 0C10.0648 0 8.39565 0.691404 7.16494 1.92211C5.93424 3.15282 5.24283 4.82202 5.24283 6.5625V10.7494L3.87783 11.4056C3.40134 11.6252 3.0153 12.0027 2.78498 12.4741C2.55467 12.9455 2.4942 13.482 2.61382 13.9928C2.73343 14.5037 3.02577 14.9576 3.44143 15.2778C3.85709 15.5979 4.37056 15.7647 4.89502 15.75H18.7156C19.23 15.7516 19.7298 15.579 20.1336 15.2603C20.5374 14.9417 20.8214 14.4956 20.9393 13.995C21.0573 13.4943 21.0022 12.9684 20.7832 12.503C20.5641 12.0376 20.1939 11.66 19.7328 11.4319Z" fill="#366AD2"/>
</g>
<defs>
<clipPath id="clip0_345_2002">
<rect width="21" height="19.6875" fill="white"/>
</clipPath>
</defs>
</svg>
