<svg width="30" height="29" viewBox="0 0 30 29" fill="none" xmlns="http://www.w3.org/2000/svg">
<rect x="0.75" width="29" height="29" rx="4" fill="url(#paint0_linear_734_714)"/>
<rect x="0.75" width="29" height="29" rx="4" fill="white"/>
<g clip-path="url(#clip0_734_714)">
<path d="M7.9537 7.04321C6.7595 7.04321 5.78857 7.99862 5.78857 9.17373V10.239H25.2747V9.17373C25.2747 7.99862 24.3038 7.04321 23.1096 7.04321H7.9537ZM25.2747 13.4348H5.78857V19.8263C5.78857 21.0014 6.7595 21.9568 7.9537 21.9568H23.1096C24.3038 21.9568 25.2747 21.0014 25.2747 19.8263V13.4348ZM9.57754 17.6958H11.7427C12.0404 17.6958 12.2839 17.9355 12.2839 18.2284C12.2839 18.5214 12.0404 18.761 11.7427 18.761H9.57754C9.27984 18.761 9.03626 18.5214 9.03626 18.2284C9.03626 17.9355 9.27984 17.6958 9.57754 17.6958ZM13.3665 18.2284C13.3665 17.9355 13.6101 17.6958 13.9078 17.6958H18.238C18.5357 17.6958 18.7793 17.9355 18.7793 18.2284C18.7793 18.5214 18.5357 18.761 18.238 18.761H16.0729H13.9078C13.6101 18.761 13.3665 18.5214 13.3665 18.2284Z" fill="#53639A"/>
</g>
<defs>
<linearGradient id="paint0_linear_734_714" x1="-2.15475" y1="-7.85417" x2="30.4702" y2="41.0833" gradientUnits="userSpaceOnUse">
<stop stop-color="#81C6ED"/>
<stop offset="0.488392" stop-color="#5B99E0"/>
<stop offset="1" stop-color="#366AD2"/>
</linearGradient>
<clipPath id="clip0_734_714">
<rect width="19.4861" height="15.25" fill="white" transform="translate(5.50696 6.875)"/>
</clipPath>
</defs>
</svg>
