<svg width="18" height="15" viewBox="0 0 18 15" fill="none" xmlns="http://www.w3.org/2000/svg">
<path d="M5.02236 2.8979L4.16295 5.37493H13.8371L12.9776 2.8979C12.8295 2.47288 12.431 2.18733 11.9832 2.18733H6.01677C5.56895 2.18733 5.17053 2.47288 5.02236 2.8979ZM1.87449 5.53431L3.03353 2.19729C3.47806 0.918925 4.67332 0.0622559 6.01677 0.0622559H11.9832C13.3267 0.0622559 14.5219 0.918925 14.9665 2.19729L16.1255 5.53431C16.8894 5.85307 17.4294 6.61345 17.4294 7.5V12.2814V13.8752C17.4294 14.4629 16.9586 14.9377 16.3758 14.9377H15.3221C14.7393 14.9377 14.2684 14.4629 14.2684 13.8752V12.2814H3.7316V13.8752C3.7316 14.4629 3.26073 14.9377 2.67792 14.9377H1.62424C1.04142 14.9377 0.570557 14.4629 0.570557 13.8752V12.2814V7.5C0.570557 6.61345 1.11057 5.85307 1.87449 5.53431ZM4.78528 8.56253C4.78528 8.28073 4.67427 8.01047 4.47666 7.81121C4.27906 7.61194 4.01105 7.5 3.7316 7.5C3.45214 7.5 3.18414 7.61194 2.98653 7.81121C2.78893 8.01047 2.67792 8.28073 2.67792 8.56253C2.67792 8.84434 2.78893 9.11459 2.98653 9.31386C3.18414 9.51312 3.45214 9.62507 3.7316 9.62507C4.01105 9.62507 4.27906 9.51312 4.47666 9.31386C4.67427 9.11459 4.78528 8.84434 4.78528 8.56253ZM14.2684 9.62507C14.5479 9.62507 14.8159 9.51312 15.0135 9.31386C15.2111 9.11459 15.3221 8.84434 15.3221 8.56253C15.3221 8.28073 15.2111 8.01047 15.0135 7.81121C14.8159 7.61194 14.5479 7.5 14.2684 7.5C13.9889 7.5 13.7209 7.61194 13.5233 7.81121C13.3257 8.01047 13.2147 8.28073 13.2147 8.56253C13.2147 8.84434 13.3257 9.11459 13.5233 9.31386C13.7209 9.51312 13.9889 9.62507 14.2684 9.62507Z" fill="#346AD2"/>
</svg>
