<svg width="20" height="17" viewBox="0 0 20 17" fill="none" xmlns="http://www.w3.org/2000/svg">
<g clip-path="url(#clip0_734_614)">
<path d="M1.06871 3.17373C1.06871 2.15757 1.90994 1.32335 2.95369 1.32335H18.1096C19.1533 1.32335 19.9945 2.15757 19.9945 3.17373V3.95885H1.06871V3.17373ZM1.06871 13.8263V7.7149H19.9945V13.8263C19.9945 14.8425 19.1533 15.6767 18.1096 15.6767H2.95369C1.90994 15.6767 1.06871 14.8425 1.06871 13.8263ZM6.74266 11.4156H4.57754C4.12939 11.4156 3.75612 11.7765 3.75612 12.2284C3.75612 12.6803 4.12939 13.0412 4.57754 13.0412H6.74266C7.19081 13.0412 7.56408 12.6803 7.56408 12.2284C7.56408 11.7765 7.19081 11.4156 6.74266 11.4156ZM8.90778 11.4156C8.45964 11.4156 8.08636 11.7765 8.08636 12.2284C8.08636 12.6803 8.45964 13.0412 8.90778 13.0412H13.238C13.6862 13.0412 14.0595 12.6803 14.0595 12.2284C14.0595 11.7765 13.6862 11.4156 13.238 11.4156H8.90778Z" fill="white" stroke="white" stroke-width="0.56028"/>
</g>
<defs>
<clipPath id="clip0_734_614">
<rect width="19.4861" height="15.25" fill="white" transform="translate(0.506945 0.875)"/>
</clipPath>
</defs>
</svg>
