<svg width="15" height="19" viewBox="0 0 15 19" fill="none" xmlns="http://www.w3.org/2000/svg">
<g clip-path="url(#clip0_467_1400)">
<path d="M11.7967 16.9178C12.1035 16.9178 12.3546 16.6611 12.3546 16.3472V6.07638H9.565C8.9478 6.07638 8.44915 5.56641 8.44915 4.93518V2.08217H2.86993C2.56308 2.08217 2.31201 2.33894 2.31201 2.65277V16.3472C2.31201 16.6611 2.56308 16.9178 2.86993 16.9178H11.7967ZM0.638245 2.65277C0.638245 1.39388 1.63902 0.370361 2.86993 0.370361H8.64094C9.23373 0.370361 9.80211 0.609301 10.2206 1.03725L13.3763 4.26472C13.7947 4.69267 14.0284 5.27397 14.0284 5.88024V16.3472C14.0284 17.6061 13.0276 18.6296 11.7967 18.6296H2.86993C1.63902 18.6296 0.638245 17.6061 0.638245 16.3472V2.65277Z" fill="#366AD2"/>
<path d="M10.1594 8.87289C10.154 8.85646 10.1448 8.84165 10.1324 8.82976C10.1201 8.81787 10.105 8.80928 10.0887 8.80474C10.0725 8.8007 10.0556 8.80105 10.0396 8.80576C10.0237 8.81047 10.0092 8.81938 9.99765 8.83159L9.21498 9.63291L8.77207 9.37682L8.51927 8.92246L9.30396 8.1232C9.31592 8.11097 9.32462 8.09583 9.32922 8.07919C9.33382 8.06256 9.33418 8.04501 9.33025 8.0282C9.32598 8.01139 9.31762 7.99596 9.30595 7.98332C9.29429 7.97069 9.27969 7.96126 9.26351 7.95591C9.02018 7.87653 8.76007 7.8675 8.51201 7.92984C8.26396 7.99217 8.03765 8.12343 7.85818 8.30906C7.6787 8.49469 7.55306 8.72745 7.49519 8.98154C7.43732 9.23562 7.44947 9.50111 7.53031 9.74857L5.13375 12.1918C4.9473 12.1525 4.75423 12.161 4.57178 12.2165C4.38933 12.272 4.22318 12.3728 4.08817 12.5098C3.87362 12.7289 3.75308 13.0261 3.75308 13.3359C3.75308 13.6458 3.87362 13.943 4.08817 14.1621C4.30272 14.3812 4.59371 14.5042 4.89713 14.5042C5.20055 14.5042 5.49154 14.3812 5.70609 14.1621C5.84025 14.0242 5.93877 13.8544 5.99278 13.6681C6.04679 13.4817 6.0546 13.2845 6.01552 13.0943L8.40601 10.6428C8.64804 10.7246 8.90752 10.7365 9.15573 10.677C9.40393 10.6175 9.63116 10.489 9.81227 10.3058C9.99338 10.1225 10.1213 9.89168 10.1819 9.63878C10.2424 9.38588 10.2333 9.1208 10.1554 8.87289H10.1594ZM5.39869 13.274L5.28543 13.6726C5.28137 13.6879 5.27345 13.7019 5.26245 13.7131C5.25145 13.7244 5.23776 13.7325 5.22274 13.7366L4.8405 13.8523H4.81421C4.80204 13.8523 4.79 13.8498 4.77885 13.8448C4.7677 13.8398 4.7577 13.8325 4.74949 13.8233L4.41782 13.4846C4.40601 13.4728 4.39768 13.4578 4.39375 13.4414C4.38982 13.425 4.39045 13.4078 4.39557 13.3917L4.5068 12.9993C4.51165 12.9846 4.51987 12.9713 4.53078 12.9605C4.54169 12.9498 4.55496 12.9418 4.5695 12.9373L4.95174 12.8196C4.96803 12.8154 4.98512 12.8154 5.00139 12.8197C5.01767 12.8241 5.03259 12.8326 5.04477 12.8444L5.3724 13.181C5.38471 13.1926 5.39368 13.2074 5.39832 13.2237C5.40295 13.2401 5.40308 13.2575 5.39869 13.274Z" fill="#366AD2"/>
</g>
<defs>
<clipPath id="clip0_467_1400">
<rect width="13.3901" height="18.2593" fill="white" transform="translate(0.638245 0.370361)"/>
</clipPath>
</defs>
</svg>
