<svg width="21" height="21" viewBox="0 0 21 21" fill="none" xmlns="http://www.w3.org/2000/svg">
<g clip-path="url(#clip0_345_1982)">
<path d="M3.06247 21H16.1875C17.001 20.9977 17.7803 20.6727 18.3544 20.0964C18.9286 19.5201 19.2507 18.7396 19.25 17.9261V11.3313C19.25 11.0992 19.1578 10.8766 18.9937 10.7125C18.8296 10.5484 18.607 10.4563 18.375 10.4563C18.1429 10.4563 17.9203 10.5484 17.7563 10.7125C17.5922 10.8766 17.5 11.0992 17.5 11.3313V17.9261C17.5011 18.2756 17.3636 18.6113 17.1175 18.8595C16.8715 19.1077 16.537 19.2481 16.1875 19.25H3.06247C2.71297 19.2481 2.37849 19.1077 2.13242 18.8595C1.88635 18.6113 1.74881 18.2756 1.74997 17.9261V4.82387C1.74881 4.47437 1.88635 4.13869 2.13242 3.89049C2.37849 3.64229 2.71297 3.50185 3.06247 3.5H9.62497C9.85703 3.5 10.0796 3.40781 10.2437 3.24372C10.4078 3.07962 10.5 2.85706 10.5 2.625C10.5 2.39294 10.4078 2.17038 10.2437 2.00628C10.0796 1.84219 9.85703 1.75 9.62497 1.75H3.06247C2.24899 1.75232 1.46965 2.07728 0.895496 2.65357C0.321341 3.22985 -0.000727972 4.01039 -2.93835e-05 4.82387V17.9261C-0.000727972 18.7396 0.321341 19.5201 0.895496 20.0964C1.46965 20.6727 2.24899 20.9977 3.06247 21Z" fill="#366AD2"/>
<path d="M8.27311 9.22596L7.58274 12.3882C7.55149 12.5316 7.55683 12.6806 7.59827 12.8215C7.63971 12.9623 7.71591 13.0904 7.81986 13.1941C7.92525 13.2951 8.05343 13.3693 8.19357 13.4103C8.3337 13.4512 8.48164 13.4578 8.62486 13.4295L11.7801 12.7373C11.9439 12.7014 12.094 12.6191 12.2124 12.5002L20.1871 4.52546C20.4309 4.2817 20.6243 3.9923 20.7563 3.6738C20.8882 3.35529 20.9561 3.01391 20.9561 2.66915C20.9561 2.32439 20.8882 1.98301 20.7563 1.6645C20.6243 1.34599 20.4309 1.0566 20.1871 0.812837C19.6873 0.335206 19.0226 0.0686646 18.3312 0.0686646C17.6399 0.0686646 16.9752 0.335206 16.4754 0.812837L8.51286 8.79546C8.39336 8.91303 8.31014 9.06246 8.27311 9.22596ZM17.7126 2.05096C17.8791 1.89148 18.1007 1.80246 18.3312 1.80246C18.5618 1.80246 18.7834 1.89148 18.9499 2.05096C19.1117 2.21601 19.2024 2.43797 19.2024 2.66915C19.2024 2.90033 19.1117 3.12229 18.9499 3.28734L18.3312 3.90596L17.094 2.66871L17.7126 2.05096ZM9.92511 9.85071L15.8524 3.90859L17.0774 5.13971L11.1475 11.0836L9.57686 11.4283L9.92511 9.85071Z" fill="#366AD2"/>
</g>
<defs>
<clipPath id="clip0_345_1982">
<rect width="21" height="21" fill="white"/>
</clipPath>
</defs>
</svg>
