<svg width="15" height="15" viewBox="0 0 15 15" fill="none" xmlns="http://www.w3.org/2000/svg">
<path d="M0 12.1875C0 12.7061 0.418945 13.125 0.9375 13.125H2.54004C2.90039 13.9541 3.72656 14.5312 4.6875 14.5312C5.64844 14.5312 6.47461 13.9541 6.83496 13.125H14.0625C14.5811 13.125 15 12.7061 15 12.1875C15 11.6689 14.5811 11.25 14.0625 11.25H6.83496C6.47461 10.4209 5.64844 9.84375 4.6875 9.84375C3.72656 9.84375 2.90039 10.4209 2.54004 11.25H0.9375C0.418945 11.25 0 11.6689 0 12.1875ZM3.75 12.1875C3.75 11.9389 3.84877 11.7004 4.02459 11.5246C4.2004 11.3488 4.43886 11.25 4.6875 11.25C4.93614 11.25 5.1746 11.3488 5.35041 11.5246C5.52623 11.7004 5.625 11.9389 5.625 12.1875C5.625 12.4361 5.52623 12.6746 5.35041 12.8504C5.1746 13.0262 4.93614 13.125 4.6875 13.125C4.43886 13.125 4.2004 13.0262 4.02459 12.8504C3.84877 12.6746 3.75 12.4361 3.75 12.1875ZM9.375 7.5C9.375 7.25136 9.47377 7.0129 9.64959 6.83709C9.8254 6.66127 10.0639 6.5625 10.3125 6.5625C10.5611 6.5625 10.7996 6.66127 10.9754 6.83709C11.1512 7.0129 11.25 7.25136 11.25 7.5C11.25 7.74864 11.1512 7.9871 10.9754 8.16291C10.7996 8.33873 10.5611 8.4375 10.3125 8.4375C10.0639 8.4375 9.8254 8.33873 9.64959 8.16291C9.47377 7.9871 9.375 7.74864 9.375 7.5ZM10.3125 5.15625C9.35156 5.15625 8.52539 5.7334 8.16504 6.5625H0.9375C0.418945 6.5625 0 6.98145 0 7.5C0 8.01855 0.418945 8.4375 0.9375 8.4375H8.16504C8.52539 9.2666 9.35156 9.84375 10.3125 9.84375C11.2734 9.84375 12.0996 9.2666 12.46 8.4375H14.0625C14.5811 8.4375 15 8.01855 15 7.5C15 6.98145 14.5811 6.5625 14.0625 6.5625H12.46C12.0996 5.7334 11.2734 5.15625 10.3125 5.15625ZM5.625 3.75C5.37636 3.75 5.1379 3.65123 4.96209 3.47541C4.78627 3.2996 4.6875 3.06114 4.6875 2.8125C4.6875 2.56386 4.78627 2.3254 4.96209 2.14959C5.1379 1.97377 5.37636 1.875 5.625 1.875C5.87364 1.875 6.1121 1.97377 6.28791 2.14959C6.46373 2.3254 6.5625 2.56386 6.5625 2.8125C6.5625 3.06114 6.46373 3.2996 6.28791 3.47541C6.1121 3.65123 5.87364 3.75 5.625 3.75ZM7.77246 1.875C7.41211 1.0459 6.58594 0.46875 5.625 0.46875C4.66406 0.46875 3.83789 1.0459 3.47754 1.875H0.9375C0.418945 1.875 0 2.29395 0 2.8125C0 3.33105 0.418945 3.75 0.9375 3.75H3.47754C3.83789 4.5791 4.66406 5.15625 5.625 5.15625C6.58594 5.15625 7.41211 4.5791 7.77246 3.75H14.0625C14.5811 3.75 15 3.33105 15 2.8125C15 2.29395 14.5811 1.875 14.0625 1.875H7.77246Z" fill="#366AD2"/>
</svg>
