<svg width="26" height="26" viewBox="0 0 26 26" fill="none" xmlns="http://www.w3.org/2000/svg">
<g clip-path="url(#clip0_210_891)">
<rect width="26" height="26" rx="4.95238" fill="#B2D3FF"/>
<path d="M9.35422 8.52174C9.4421 8.55865 9.50537 8.63774 9.52295 8.73089L9.8727 10.6273L11.7691 10.9753C11.8623 10.9929 11.9413 11.0561 11.9783 11.144C12.0152 11.2319 12.0046 11.3321 11.9501 11.4112L10.8552 13L11.9501 14.5871C12.0046 14.6662 12.0152 14.7663 11.9783 14.8542C11.9413 14.9421 11.8623 15.0054 11.7691 15.023L9.8727 15.3727L9.52295 17.2691C9.50537 17.3623 9.4421 17.4413 9.35422 17.4783C9.26635 17.5152 9.16617 17.5046 9.08708 17.4501L7.5 16.3552L5.91292 17.4501C5.83383 17.5046 5.73365 17.5152 5.64578 17.4783C5.5579 17.4413 5.49463 17.3623 5.47705 17.2691L5.1273 15.3727L3.23089 15.023C3.13774 15.0054 3.05865 14.9421 3.02174 14.8542C2.98483 14.7663 2.99538 14.6662 3.04986 14.5871L4.14482 13L3.04986 11.4129C2.99538 11.3338 2.98483 11.2337 3.02174 11.1458C3.05865 11.0579 3.13774 10.9946 3.23089 10.9771L5.1273 10.6273L5.47705 8.73089C5.49463 8.63774 5.5579 8.55865 5.64578 8.52174C5.73365 8.48483 5.83383 8.49538 5.91292 8.54986L7.5 9.64482L9.08708 8.54986C9.16617 8.49538 9.26635 8.48483 9.35422 8.52174ZM5.81274 13C5.81274 12.5525 5.99051 12.1234 6.30693 11.8069C6.62335 11.4905 7.05251 11.3127 7.5 11.3127C7.94749 11.3127 8.37665 11.4905 8.69307 11.8069C9.00949 12.1234 9.18726 12.5525 9.18726 13C9.18726 13.4475 9.00949 13.8766 8.69307 14.1931C8.37665 14.5095 7.94749 14.6873 7.5 14.6873C7.05251 14.6873 6.62335 14.5095 6.30693 14.1931C5.99051 13.8766 5.81274 13.4475 5.81274 13ZM9.74967 13C9.74967 12.4033 9.51266 11.8311 9.09076 11.4092C8.66886 10.9873 8.09665 10.7503 7.5 10.7503C6.90335 10.7503 6.33114 10.9873 5.90924 11.4092C5.48734 11.8311 5.25033 12.4033 5.25033 13C5.25033 13.5967 5.48734 14.1689 5.90924 14.5908C6.33114 15.0127 6.90335 15.2497 7.5 15.2497C8.09665 15.2497 8.66886 15.0127 9.09076 14.5908C9.51266 14.1689 9.74967 13.5967 9.74967 13Z" fill="white"/>
</g>
<g clip-path="url(#clip1_210_891)">
<rect width="26" height="26" rx="4.95238" fill="#2F80ED"/>
<g clip-path="url(#clip2_210_891)">
<path d="M19.6562 8.1875C17.0833 8.1875 15 10.3424 15 13C15 15.6576 17.0833 17.8125 19.6562 17.8125C20.9187 17.8125 22.0625 17.2926 22.9021 16.4504C23.0062 16.3451 23.0333 16.1818 22.9667 16.0486C22.9 15.9154 22.7562 15.8402 22.6125 15.866C22.4083 15.9025 22.2 15.9219 21.9854 15.9219C19.9667 15.9219 18.3292 14.2289 18.3292 12.1406C18.3292 10.727 19.0792 9.4959 20.1896 8.84707C20.3167 8.77188 20.3812 8.62148 20.35 8.47539C20.3187 8.3293 20.1979 8.21973 20.0521 8.20684C19.9208 8.19609 19.7896 8.18965 19.6562 8.18965V8.1875Z" fill="white"/>
</g>
</g>
<defs>
<clipPath id="clip0_210_891">
<rect width="13" height="26" fill="white"/>
</clipPath>
<clipPath id="clip1_210_891">
<rect width="13" height="26" fill="white" transform="translate(13)"/>
</clipPath>
<clipPath id="clip2_210_891">
<rect width="8" height="11" fill="white" transform="translate(15 7.5)"/>
</clipPath>
</defs>
</svg>
