<svg width="26" height="27" viewBox="0 0 26 27" fill="none" xmlns="http://www.w3.org/2000/svg">
<rect y="0.85498" width="25.971" height="25.971" rx="3.24638" fill="#B3D3FF"/>
<g clip-path="url(#clip0_364_5036)">
<path d="M5.9855 7.84033C5.9855 6.73721 6.88238 5.84033 7.9855 5.84033H12.9855C14.0886 5.84033 14.9855 6.73721 14.9855 7.84033V13.8403H15.2355C16.7543 13.8403 17.9855 15.0716 17.9855 16.5903V17.5903C17.9855 18.006 18.3199 18.3403 18.7355 18.3403C19.1511 18.3403 19.4855 18.006 19.4855 17.5903V12.7778C18.623 12.556 17.9855 11.7716 17.9855 10.8403V8.84033L16.9855 7.84033C16.7105 7.56533 16.7105 7.11533 16.9855 6.84033C17.2605 6.56533 17.7105 6.56533 17.9855 6.84033L20.4011 9.25596C20.7761 9.63096 20.9855 10.1403 20.9855 10.6716V11.0903V11.8403V12.8403V17.5903C20.9855 18.8341 19.9793 19.8403 18.7355 19.8403C17.4918 19.8403 16.4855 18.8341 16.4855 17.5903V16.5903C16.4855 15.8997 15.9261 15.3403 15.2355 15.3403H14.9855V19.8403C15.5386 19.8403 15.9855 20.2872 15.9855 20.8403C15.9855 21.3935 15.5386 21.8403 14.9855 21.8403H5.9855C5.43238 21.8403 4.9855 21.3935 4.9855 20.8403C4.9855 20.2872 5.43238 19.8403 5.9855 19.8403V7.84033ZM7.9855 8.34033V11.3403C7.9855 11.6153 8.2105 11.8403 8.4855 11.8403H12.4855C12.7605 11.8403 12.9855 11.6153 12.9855 11.3403V8.34033C12.9855 8.06533 12.7605 7.84033 12.4855 7.84033H8.4855C8.2105 7.84033 7.9855 8.06533 7.9855 8.34033Z" fill="white"/>
</g>
<defs>
<clipPath id="clip0_364_5036">
<rect width="16" height="16" fill="white" transform="translate(4.9855 5.84033)"/>
</clipPath>
</defs>
</svg>
