<svg width="16" height="15" viewBox="0 0 16 15" fill="none" xmlns="http://www.w3.org/2000/svg">
<path d="M15.2461 7.48535C15.2461 8.0127 14.8554 8.42578 14.4127 8.42578H13.5793L13.5975 13.1191C13.5975 13.1982 13.5923 13.2773 13.5845 13.3564V13.8281C13.5845 14.4756 13.1183 15 12.5427 15H12.126C12.0974 15 12.0687 15 12.0401 14.9971C12.0036 15 11.9671 15 11.9307 15H11.0843H10.4592C9.88363 15 9.41745 14.4756 9.41745 13.8281V13.125V11.25C9.41745 10.7314 9.04502 10.3125 8.58404 10.3125H6.91723C6.45626 10.3125 6.08383 10.7314 6.08383 11.25V13.125V13.8281C6.08383 14.4756 5.61764 15 5.04207 15H4.41702H3.58622C3.54716 15 3.50809 14.9971 3.46902 14.9941C3.43777 14.9971 3.40652 15 3.37527 15H2.95856C2.38299 15 1.91681 14.4756 1.91681 13.8281V10.5469C1.91681 10.5205 1.91681 10.4912 1.91941 10.4648V8.42578H1.0834C0.614614 8.42578 0.25 8.01563 0.25 7.48535C0.25 7.22168 0.328132 6.9873 0.510439 6.78223L7.18809 0.234375C7.3704 0.0292969 7.57875 0 7.76106 0C7.94336 0 8.15171 0.0585938 8.30798 0.205078L14.9596 6.78223C15.1679 6.9873 15.2721 7.22168 15.2461 7.48535Z" fill="white"/>
</svg>
