<svg width="30" height="29" viewBox="0 0 30 29" fill="none" xmlns="http://www.w3.org/2000/svg">
<rect x="0.25" width="29" height="29" rx="4" fill="url(#paint0_linear_734_783)"/>
<rect x="0.25" width="29" height="29" rx="4" fill="white"/>
<path d="M22.2461 14.4854C22.2461 15.0127 21.8554 15.4258 21.4127 15.4258H20.5793L20.5975 20.1191C20.5975 20.1982 20.5923 20.2773 20.5845 20.3564V20.8281C20.5845 21.4756 20.1183 22 19.5427 22H19.126C19.0974 22 19.0687 22 19.0401 21.9971C19.0036 22 18.9671 22 18.9307 22H18.0843H17.4592C16.8836 22 16.4174 21.4756 16.4174 20.8281V20.125V18.25C16.4174 17.7314 16.045 17.3125 15.584 17.3125H13.9172C13.4563 17.3125 13.0838 17.7314 13.0838 18.25V20.125V20.8281C13.0838 21.4756 12.6176 22 12.0421 22H11.417H10.5862C10.5472 22 10.5081 21.9971 10.469 21.9941C10.4378 21.9971 10.4065 22 10.3753 22H9.95856C9.38299 22 8.91681 21.4756 8.91681 20.8281V17.5469C8.91681 17.5205 8.91681 17.4912 8.91941 17.4648V15.4258H8.0834C7.61461 15.4258 7.25 15.0156 7.25 14.4854C7.25 14.2217 7.32813 13.9873 7.51044 13.7822L14.1881 7.23438C14.3704 7.0293 14.5787 7 14.7611 7C14.9434 7 15.1517 7.05859 15.308 7.20508L21.9596 13.7822C22.1679 13.9873 22.2721 14.2217 22.2461 14.4854Z" fill="#53639A"/>
<defs>
<linearGradient id="paint0_linear_734_783" x1="-2.65475" y1="-7.85417" x2="29.9702" y2="41.0833" gradientUnits="userSpaceOnUse">
<stop stop-color="#81C6ED"/>
<stop offset="0.488392" stop-color="#5B99E0"/>
<stop offset="1" stop-color="#366AD2"/>
</linearGradient>
</defs>
</svg>
