<svg width="26" height="27" viewBox="0 0 26 27" fill="none" xmlns="http://www.w3.org/2000/svg">
<rect y="0.971191" width="25.971" height="25.971" rx="3.24638" fill="#B3D3FF"/>
<path d="M9.34174 19.878C9.09124 19.878 8.88627 19.6731 8.88627 19.4226V8.49131C8.88627 8.2408 9.09124 8.03584 9.34174 8.03584H13.8964V10.3132C13.8964 10.817 14.3035 11.2241 14.8074 11.2241H17.0847V19.4226C17.0847 19.6731 16.8798 19.878 16.6292 19.878H9.34174ZM9.34174 6.66943C8.33686 6.66943 7.51987 7.48643 7.51987 8.49131V19.4226C7.51987 20.4274 8.33686 21.2444 9.34174 21.2444H16.6292C17.6341 21.2444 18.4511 20.4274 18.4511 19.4226V11.0676C18.4511 10.5836 18.2604 10.1196 17.9188 9.77801L15.3397 7.20176C14.9981 6.86016 14.5369 6.66943 14.053 6.66943H9.34174ZM10.9359 13.9569C10.5573 13.9569 10.2527 14.2615 10.2527 14.6401C10.2527 15.0188 10.5573 15.3233 10.9359 15.3233H15.0351C15.4137 15.3233 15.7183 15.0188 15.7183 14.6401C15.7183 14.2615 15.4137 13.9569 15.0351 13.9569H10.9359ZM10.9359 16.6898C10.5573 16.6898 10.2527 16.9943 10.2527 17.373C10.2527 17.7516 10.5573 18.0562 10.9359 18.0562H15.0351C15.4137 18.0562 15.7183 17.7516 15.7183 17.373C15.7183 16.9943 15.4137 16.6898 15.0351 16.6898H10.9359Z" fill="white"/>
<g clip-path="url(#clip0_328_1910)">
<path d="M23.1 17.1893L23.1 17.1888C23.1022 16.626 22.7498 16.1668 22.2881 15.9715C22.288 15.9715 22.2879 15.9714 22.2878 15.9714L19.3494 14.7245C19.24 14.6757 19.1205 14.65 19 14.65C18.8806 14.65 18.7606 14.6753 18.651 14.725L15.7122 15.9714C15.7121 15.9714 15.712 15.9714 15.712 15.9715C15.2502 16.1667 14.8979 16.6259 14.9 17.1888L14.9 17.1893C14.9081 18.7961 15.5664 21.804 18.4364 23.1782C18.7929 23.3489 19.2071 23.3489 19.5637 23.1782C22.4336 21.804 23.0919 18.7961 23.1 17.1893ZM19.35 21.3477V16.5722L21.3924 17.4379C21.3261 18.6439 20.8277 20.3608 19.35 21.3477Z" fill="#2F80ED" stroke="#B3D3FF" stroke-width="0.7"/>
</g>
<defs>
<clipPath id="clip0_328_1910">
<rect width="8" height="8" fill="white" transform="translate(15 15)"/>
</clipPath>
</defs>
</svg>
