<svg width="12" height="12" viewBox="0 0 12 12" fill="none" xmlns="http://www.w3.org/2000/svg">
<path d="M11.2986 6.55491C11.5671 6.24799 11.5671 5.74955 11.2986 5.44263L8.54844 2.29978C8.27987 1.99286 7.84372 1.99286 7.57515 2.29978C7.30658 2.6067 7.30658 3.10513 7.57515 3.41205L9.15218 5.21429H4.6252C4.24491 5.21429 3.93767 5.5654 3.93767 6C3.93767 6.4346 4.24491 6.78571 4.6252 6.78571H9.15218L7.57515 8.58795C7.30658 8.89487 7.30658 9.3933 7.57515 9.70022C7.84372 10.0071 8.27987 10.0071 8.54844 9.70022L11.2986 6.55737V6.55491ZM3.93767 2.07143C4.31796 2.07143 4.6252 1.72031 4.6252 1.28571C4.6252 0.851116 4.31796 0.5 3.93767 0.5H2.5626C1.42387 0.5 0.5 1.5558 0.5 2.85714V9.14286C0.5 10.4442 1.42387 11.5 2.5626 11.5H3.93767C4.31796 11.5 4.6252 11.1489 4.6252 10.7143C4.6252 10.2797 4.31796 9.92857 3.93767 9.92857H2.5626C2.18231 9.92857 1.87507 9.57746 1.87507 9.14286V2.85714C1.87507 2.42254 2.18231 2.07143 2.5626 2.07143H3.93767Z" fill="#FCFCFC"/>
</svg>
