<svg width="26" height="26" viewBox="0 0 26 26" fill="none" xmlns="http://www.w3.org/2000/svg">
<rect width="26" height="26" rx="4.95238" fill="#B2D3FF"/>
<path d="M16.316 4.99127C16.4732 5.05728 16.5863 5.19872 16.6177 5.36531L17.2432 8.75676L20.6347 9.37911C20.8013 9.41054 20.9427 9.52369 21.0087 9.68085C21.0747 9.83801 21.0559 10.0172 20.9584 10.1586L19.0003 13L20.9584 15.8383C21.0559 15.9797 21.0747 16.1589 21.0087 16.316C20.9427 16.4732 20.8013 16.5863 20.6347 16.6178L17.2432 17.2433L16.6177 20.6347C16.5863 20.8013 16.4732 20.9427 16.316 21.0088C16.1588 21.0748 15.9797 21.0559 15.8382 20.9585L13 19.0003L10.1617 20.9585C10.0203 21.0559 9.84112 21.0748 9.68396 21.0088C9.5268 20.9427 9.41365 20.8013 9.38222 20.6347L8.75673 17.2433L5.36528 16.6178C5.19869 16.5863 5.05725 16.4732 4.99124 16.316C4.92524 16.1589 4.9441 15.9797 5.04153 15.8383L6.99971 13L5.04153 10.1618C4.9441 10.0203 4.92524 9.84115 4.99124 9.68399C5.05725 9.52684 5.19869 9.41368 5.36528 9.38225L8.75673 8.75676L9.38222 5.36531C9.41365 5.19872 9.5268 5.05728 9.68396 4.99127C9.84112 4.92527 10.0203 4.94413 10.1617 5.04156L13 6.99975L15.8382 5.04156C15.9797 4.94413 16.1588 4.92527 16.316 4.99127ZM9.98256 13C9.98256 12.1997 10.3005 11.4323 10.8663 10.8664C11.4322 10.3005 12.1997 9.98259 13 9.98259C13.8003 9.98259 14.5677 10.3005 15.1336 10.8664C15.6995 11.4323 16.0174 12.1997 16.0174 13C16.0174 13.8003 15.6995 14.5678 15.1336 15.1337C14.5677 15.6995 13.8003 16.0174 13 16.0174C12.1997 16.0174 11.4322 15.6995 10.8663 15.1337C10.3005 14.5678 9.98256 13.8003 9.98256 13ZM17.0232 13C17.0232 11.933 16.5993 10.9097 15.8448 10.1552C15.0903 9.40066 14.067 8.97678 13 8.97678C11.933 8.97678 10.9096 9.40066 10.1551 10.1552C9.40063 10.9097 8.97675 11.933 8.97675 13C8.97675 14.067 9.40063 15.0904 10.1551 15.8449C10.9096 16.5994 11.933 17.0232 13 17.0232C14.067 17.0232 15.0903 16.5994 15.8448 15.8449C16.5993 15.0904 17.0232 14.067 17.0232 13Z" fill="white"/>
</svg>
