<svg width="20" height="19" viewBox="0 0 20 19" fill="none" xmlns="http://www.w3.org/2000/svg">
<path d="M10.4065 6.20844C9.70523 6.8581 8.75 7.22633 7.75 7.22633C6.75 7.22633 5.79476 6.8581 5.09355 6.20844C4.39303 5.55943 4.00384 4.68386 4.00384 3.77575C4.00384 2.86763 4.39303 1.99207 5.09355 1.34306C5.79476 0.693401 6.75 0.325168 7.75 0.325168C8.75 0.325168 9.70523 0.693401 10.4065 1.34306C11.107 1.99207 11.4962 2.86763 11.4962 3.77575C11.4962 4.68386 11.107 5.55943 10.4065 6.20844ZM0.988986 14.0843C0.988986 11.3888 3.35251 9.17023 6.3148 9.17023H9.1852C12.1475 9.17023 14.511 11.3888 14.511 14.0843C14.511 14.391 14.2359 14.6748 13.8519 14.6748H1.64805C1.26409 14.6748 0.988986 14.391 0.988986 14.0843Z" fill="white" stroke="white" stroke-width="0.547309"/>
<path d="M8.22891 16.3348H8.27892H8.22891ZM8.22891 16.3348C8.20577 16.3349 8.18285 16.3305 8.16164 16.3217C8.14044 16.3129 8.12142 16.3001 8.10581 16.2839L8.22891 16.3348ZM18.0886 7.16334C18.0104 7.18467 17.9376 7.22524 17.8779 7.28281L16.5501 8.54001L15.9756 8.23281L15.6648 7.71626L16.9785 6.47884L16.9789 6.47848C17.0395 6.42123 17.0851 6.34866 17.1096 6.26688C17.1341 6.18497 17.1361 6.09807 17.1151 6.01506L17.1152 6.01505L17.1135 6.00885C17.091 5.92714 17.0475 5.85395 16.989 5.79533C16.9306 5.73681 16.859 5.69459 16.7816 5.67094L16.7805 5.67062C16.2665 5.51555 15.7176 5.49798 15.1939 5.61967C14.6702 5.74137 14.1904 5.99808 13.8084 6.36342C13.4263 6.7289 13.1569 7.18906 13.0326 7.69382L13.3287 7.76675L13.0326 7.69382C12.9244 8.13319 12.9302 8.58982 13.0479 9.02466L8.73705 13.0888C8.3855 13.0424 8.02684 13.0677 7.68518 13.1638C7.29211 13.2744 6.9325 13.4756 6.63909 13.751L6.63843 13.7516C6.17137 14.1927 5.90546 14.7948 5.90546 15.4266C5.90546 16.0583 6.17137 16.6604 6.63843 17.1015C7.10491 17.542 7.73405 17.7866 8.38664 17.7866C9.03924 17.7866 9.66837 17.542 10.1349 17.1015L10.1355 17.1008C10.4274 16.8235 10.6432 16.4805 10.7618 16.102C10.8628 15.7798 10.8903 15.4415 10.8434 15.1095L15.1458 11.0293C15.6057 11.1435 16.0889 11.1499 16.5534 11.0469C17.0775 10.9307 17.5593 10.6795 17.9447 10.3189C18.3302 9.95813 18.6045 9.50177 18.7346 8.99935C18.8298 8.63177 18.8448 8.25114 18.7805 7.88059H18.8287L18.6841 7.47355C18.6562 7.39505 18.6089 7.32612 18.5481 7.272L18.5481 7.272C18.4874 7.21796 18.415 7.18011 18.3377 7.16033L18.3378 7.16025L18.3309 7.15865C18.251 7.14017 18.1677 7.14176 18.0886 7.16334ZM8.85606 15.8566L8.27088 16.0204L7.75027 15.5287L7.91233 15.0001L8.50749 14.8306L9.02132 15.3188L8.85606 15.8566ZM7.84676 15.0187L7.84695 15.0187L7.84676 15.0187Z" fill="white" stroke="#53639A" stroke-width="0.609912"/>
</svg>
