<svg width="30" height="29" viewBox="0 0 30 29" fill="none" xmlns="http://www.w3.org/2000/svg">
<rect x="0.25" width="29" height="29" rx="4" fill="url(#paint0_linear_734_32)"/>
<rect x="0.25" width="29" height="29" rx="4" fill="white"/>
<path d="M17.4065 13.2084C16.7052 13.8581 15.75 14.2263 14.75 14.2263C13.75 14.2263 12.7948 13.8581 12.0935 13.2084C11.393 12.5594 11.0038 11.6839 11.0038 10.7757C11.0038 9.86763 11.393 8.99207 12.0935 8.34306C12.7948 7.6934 13.75 7.32517 14.75 7.32517C15.75 7.32517 16.7052 7.6934 17.4065 8.34306C18.107 8.99207 18.4962 9.86763 18.4962 10.7757C18.4962 11.6839 18.107 12.5594 17.4065 13.2084ZM7.98899 21.0843C7.98899 18.3888 10.3525 16.1702 13.3148 16.1702H16.1852C19.1475 16.1702 21.511 18.3888 21.511 21.0843C21.511 21.391 21.2359 21.6748 20.8519 21.6748H8.64805C8.26409 21.6748 7.98899 21.391 7.98899 21.0843Z" fill="#53639A" stroke="#53639A" stroke-width="0.547309"/>
<path d="M15.2289 23.3348H15.2789H15.2289ZM15.2289 23.3348C15.2057 23.3349 15.1828 23.3305 15.1616 23.3217C15.1404 23.3129 15.1214 23.3001 15.1058 23.2839L15.2289 23.3348ZM25.0886 14.1633C25.0104 14.1847 24.9375 14.2252 24.8779 14.2828L23.5501 15.54L22.9756 15.2328L22.6648 14.7163L23.9785 13.4788L23.9789 13.4785C24.0394 13.4212 24.0851 13.3487 24.1096 13.2669C24.1341 13.185 24.136 13.0981 24.1151 13.0151L24.1151 13.015L24.1134 13.0089C24.091 12.9271 24.0475 12.8539 23.989 12.7953C23.9306 12.7368 23.859 12.6946 23.7816 12.6709L23.7805 12.6706C23.2665 12.5156 22.7176 12.498 22.1939 12.6197C21.6702 12.7414 21.1904 12.9981 20.8084 13.3634C20.4263 13.7289 20.1569 14.1891 20.0326 14.6938L20.3287 14.7667L20.0326 14.6938C19.9244 15.1332 19.9302 15.5898 20.0479 16.0247L15.737 20.0888C15.3855 20.0424 15.0268 20.0677 14.6852 20.1638C14.2921 20.2744 13.9325 20.4756 13.6391 20.751L13.6384 20.7516C13.1713 21.1927 12.9054 21.7948 12.9054 22.4266C12.9054 23.0583 13.1713 23.6604 13.6384 24.1015C14.1049 24.542 14.734 24.7866 15.3866 24.7866C16.0392 24.7866 16.6684 24.542 17.1348 24.1015L17.1355 24.1008C17.4273 23.8235 17.6431 23.4805 17.7618 23.102C17.8627 22.7798 17.8903 22.4415 17.8434 22.1095L22.1457 18.0293C22.6057 18.1435 23.0889 18.1499 23.5534 18.0469C24.0775 17.9307 24.5592 17.6795 24.9447 17.3189C25.3302 16.9581 25.6045 16.5018 25.7346 15.9993C25.8298 15.6318 25.8448 15.2511 25.7805 14.8806H25.8287L25.6841 14.4735C25.6562 14.395 25.6089 14.3261 25.5481 14.272L25.5481 14.272C25.4874 14.218 25.4149 14.1801 25.3377 14.1603L25.3377 14.1602L25.3308 14.1586C25.251 14.1402 25.1677 14.1418 25.0886 14.1633ZM15.856 22.8566L15.2709 23.0204L14.7503 22.5287L14.9123 22.0001L15.5075 21.8306L16.0213 22.3188L15.856 22.8566ZM14.8467 22.0187L14.8469 22.0187L14.8467 22.0187Z" fill="#53639A" stroke="white" stroke-width="0.609912"/>
<defs>
<linearGradient id="paint0_linear_734_32" x1="-2.65475" y1="-7.85417" x2="29.9702" y2="41.0833" gradientUnits="userSpaceOnUse">
<stop stop-color="#81C6ED"/>
<stop offset="0.488392" stop-color="#5B99E0"/>
<stop offset="1" stop-color="#366AD2"/>
</linearGradient>
</defs>
</svg>
