<svg width="26" height="26" viewBox="0 0 26 26" fill="none" xmlns="http://www.w3.org/2000/svg">
<rect width="26" height="26" rx="4.95238" fill="#2F80ED"/>
<g clip-path="url(#clip0_186_958)">
<path d="M13.9844 6C10.125 6 7 9.13438 7 13C7 16.8656 10.125 20 13.9844 20C15.8781 20 17.5938 19.2438 18.8531 18.0188C19.0094 17.8656 19.05 17.6281 18.95 17.4344C18.85 17.2406 18.6344 17.1312 18.4187 17.1687C18.1125 17.2219 17.8 17.25 17.4781 17.25C14.45 17.25 11.9938 14.7875 11.9938 11.75C11.9938 9.69375 13.1188 7.90313 14.7844 6.95938C14.975 6.85 15.0719 6.63125 15.025 6.41875C14.9781 6.20625 14.7969 6.04688 14.5781 6.02813C14.3812 6.0125 14.1844 6.00312 13.9844 6.00312V6Z" fill="white"/>
</g>
<defs>
<clipPath id="clip0_186_958">
<rect width="12" height="16" fill="white" transform="translate(7 5)"/>
</clipPath>
</defs>
</svg>
