<svg width="26" height="27" viewBox="0 0 26 27" fill="none" xmlns="http://www.w3.org/2000/svg">
<rect y="0.884277" width="25.971" height="25.971" rx="3.24638" fill="#B3D3FF"/>
<path d="M13.6652 10.9599C14.0665 11.0674 14.4776 10.8301 14.5851 10.4288C14.6927 10.0275 14.4553 9.61642 14.054 9.5089L11.1521 8.73131C10.7508 8.62379 10.3397 8.86112 10.2322 9.26241C10.1247 9.6637 10.362 10.0748 10.7633 10.1823L11.4888 10.3767L11.2944 11.1022L9.48064 10.6162L8.3924 10.3246L7.30416 10.033C6.70336 9.87203 6.08531 10.2289 5.92432 10.8297L5.53067 12.2988C5.41525 12.7295 5.56469 13.1875 5.91013 13.4672L7.25822 14.5574L7.12883 15.0403C6.96784 15.6411 7.32468 16.2592 7.92547 16.4202L13.7997 17.9941C14.2169 18.1059 14.6593 18.0325 15.0198 17.7938L20.4102 14.2179C20.7735 13.9774 20.6184 13.4135 20.1844 13.3919L16.1784 13.1885L15.1866 12.3103C15.0116 12.1565 14.8039 12.0426 14.5795 11.9824L12.7454 11.491L12.9398 10.7655L13.6652 10.9599ZM8.1008 11.4128L7.57776 13.3649L6.61891 12.5904L7.01256 11.1213L8.1008 11.4128Z" fill="white"/>
<path d="M20.5 19C19.6719 19 19 18.3281 19 17.5C19 16.7875 20.0172 15.4508 20.3016 15.0914C20.3484 15.0328 20.418 15 20.493 15H20.507C20.582 15 20.6516 15.0328 20.6984 15.0914C20.9828 15.4508 22 16.7875 22 17.5C22 18.3281 21.3281 19 20.5 19ZM19.75 17.625C19.75 17.5563 19.6938 17.5 19.625 17.5C19.5562 17.5 19.5 17.5563 19.5 17.625C19.5 18.1086 19.8914 18.5 20.375 18.5C20.4438 18.5 20.5 18.4437 20.5 18.375C20.5 18.3063 20.4438 18.25 20.375 18.25C20.0297 18.25 19.75 17.9703 19.75 17.625Z" fill="#2F80ED"/>
</svg>
