<svg width="15" height="15" viewBox="0 0 15 15" fill="none" xmlns="http://www.w3.org/2000/svg">
<path d="M9.90645 6.20844C9.20523 6.8581 8.25 7.22633 7.25 7.22633C6.25 7.22633 5.29476 6.8581 4.59355 6.20844C3.89303 5.55943 3.50384 4.68386 3.50384 3.77575C3.50384 2.86763 3.89303 1.99207 4.59355 1.34306C5.29476 0.693401 6.25 0.325168 7.25 0.325168C8.25 0.325168 9.20523 0.693401 9.90645 1.34306C10.607 1.99207 10.9962 2.86763 10.9962 3.77575C10.9962 4.68386 10.607 5.55943 9.90645 6.20844ZM0.488986 14.0843C0.488986 11.3888 2.85251 9.17023 5.8148 9.17023H8.6852C11.6475 9.17023 14.011 11.3888 14.011 14.0843C14.011 14.391 13.7359 14.6748 13.3519 14.6748H1.14805C0.764095 14.6748 0.488986 14.391 0.488986 14.0843Z" fill="white" stroke="white" stroke-width="0.547309"/>
</svg>
