<svg width="18" height="25" viewBox="0 0 18 25" fill="none" xmlns="http://www.w3.org/2000/svg">
<g clip-path="url(#clip0_56_395)">
<path d="M15 22.25C15.4125 22.25 15.75 21.9125 15.75 21.5V8H12C11.1703 8 10.5 7.32969 10.5 6.5V2.75H2.99997C2.58747 2.75 2.24997 3.0875 2.24997 3.5V21.5C2.24997 21.9125 2.58747 22.25 2.99997 22.25H15ZM-3.05176e-05 3.5C-3.05176e-05 1.84531 1.34528 0.5 2.99997 0.5H10.7578C11.5547 0.5 12.3187 0.814063 12.8812 1.37656L17.1234 5.61875C17.6859 6.18125 18 6.94531 18 7.74219V21.5C18 23.1547 16.6547 24.5 15 24.5H2.99997C1.34528 24.5 -3.05176e-05 23.1547 -3.05176e-05 21.5V3.5Z" fill="#2F80ED"/>
<g clip-path="url(#clip1_56_395)">
<path d="M5.99997 4.5C6.22122 4.5 6.39997 4.66758 6.39997 4.875V5.29336C6.41997 5.2957 6.43872 5.29805 6.45872 5.30156C6.46372 5.30273 6.46747 5.30273 6.47247 5.30391L7.07247 5.40703C7.28997 5.44453 7.43372 5.64023 7.39372 5.84297C7.35372 6.0457 7.14497 6.18164 6.92872 6.14414L6.33497 6.04219C5.94372 5.98828 5.59872 6.02461 5.35622 6.11484C5.11372 6.20508 5.01622 6.3293 4.99372 6.44414C4.96872 6.56953 4.98747 6.63984 5.00872 6.6832C5.03122 6.72891 5.07747 6.78047 5.16872 6.83789C5.37247 6.96328 5.68497 7.04531 6.08997 7.14609L6.12622 7.15547C6.48372 7.24453 6.92122 7.35234 7.24622 7.55156C7.42372 7.66055 7.59122 7.8082 7.69497 8.01445C7.80122 8.22422 7.82372 8.45859 7.77497 8.7082C7.68872 9.15352 7.36122 9.45117 6.95497 9.60703C6.78372 9.67266 6.59747 9.71484 6.39997 9.73594V10.125C6.39997 10.3324 6.22122 10.5 5.99997 10.5C5.77872 10.5 5.59997 10.3324 5.59997 10.125V9.71602C5.59497 9.71484 5.58872 9.71484 5.58372 9.71367H5.58122C5.27622 9.66914 4.77497 9.54609 4.43747 9.40547C4.23622 9.32109 4.14497 9.09961 4.23497 8.91094C4.32497 8.72227 4.56122 8.63672 4.76247 8.72109C5.02372 8.83008 5.45372 8.93789 5.70247 8.97422C6.10122 9.0293 6.42997 8.99766 6.65247 8.91211C6.86372 8.83125 6.95997 8.71406 6.98747 8.57344C7.01122 8.44922 6.99247 8.37773 6.97122 8.33438C6.94747 8.2875 6.90122 8.23594 6.80872 8.17852C6.60372 8.05312 6.28997 7.97109 5.88372 7.87031L5.84872 7.86211C5.49247 7.77305 5.05497 7.66406 4.72997 7.46484C4.55247 7.35586 4.38622 7.20703 4.28247 7.00078C4.17747 6.79102 4.15622 6.55664 4.20622 6.30703C4.29622 5.85938 4.65372 5.56875 5.05997 5.41758C5.22622 5.35547 5.40872 5.31328 5.59997 5.28867V4.875C5.59997 4.66758 5.77872 4.5 5.99997 4.5Z" fill="#2F80ED"/>
</g>
<rect x="3.99997" y="13.5" width="10" height="1" rx="0.5" fill="#B2D3FF"/>
<rect x="3.99997" y="16.5" width="10" height="1" rx="0.5" fill="#B2D3FF"/>
<rect x="3.99997" y="19.5" width="10" height="1" rx="0.5" fill="#B2D3FF"/>
</g>
<defs>
<clipPath id="clip0_56_395">
<rect width="18" height="24" fill="white" transform="translate(-3.05176e-05 0.5)"/>
</clipPath>
<clipPath id="clip1_56_395">
<rect width="4" height="6" fill="white" transform="translate(3.99997 4.5)"/>
</clipPath>
</defs>
</svg>
