<svg width="30" height="29" viewBox="0 0 30 29" fill="none" xmlns="http://www.w3.org/2000/svg">
<rect x="0.75" width="29" height="29" rx="4" fill="white"/>
<path d="M15.25 14.5C16.3161 14.5 17.3386 14.1076 18.0924 13.4092C18.8463 12.7108 19.2698 11.7635 19.2698 10.7757C19.2698 9.78802 18.8463 8.84075 18.0924 8.14232C17.3386 7.44389 16.3161 7.05151 15.25 7.05151C14.1839 7.05151 13.1614 7.44389 12.4076 8.14232C11.6537 8.84075 11.2302 9.78802 11.2302 10.7757C11.2302 11.7635 11.6537 12.7108 12.4076 13.4092C13.1614 14.1076 14.1839 14.5 15.25 14.5ZM13.8148 15.8966C10.7214 15.8966 8.21533 18.2184 8.21533 21.0843C8.21533 21.5615 8.63302 21.9485 9.14805 21.9485H21.3519C21.867 21.9485 22.2847 21.5615 22.2847 21.0843C22.2847 18.2184 19.7786 15.8966 16.6852 15.8966H13.8148Z" fill="#53639A"/>
</svg>
