<svg width="16" height="16" viewBox="0 0 16 16" fill="none" xmlns="http://www.w3.org/2000/svg">
<path d="M8 8C9.06978 8 10.0957 7.57857 10.8522 6.82843C11.6086 6.07828 12.0336 5.06087 12.0336 4C12.0336 2.93913 11.6086 1.92172 10.8522 1.17157C10.0957 0.421427 9.06978 0 8 0C6.93022 0 5.90425 0.421427 5.14781 1.17157C4.39136 1.92172 3.96639 2.93913 3.96639 4C3.96639 5.06087 4.39136 6.07828 5.14781 6.82843C5.90425 7.57857 6.93022 8 8 8ZM6.55988 9.5C3.45588 9.5 0.941177 11.9937 0.941177 15.0719C0.941177 15.5844 1.3603 16 1.8771 16H14.1229C14.6397 16 15.0588 15.5844 15.0588 15.0719C15.0588 11.9937 12.5441 9.5 9.44013 9.5H6.55988Z" fill="#366AD2"/>
</svg>
