<svg width="17" height="16" viewBox="0 0 17 16" fill="none" xmlns="http://www.w3.org/2000/svg">
<g id="Frame" clip-path="url(#clip0_666_209)">
<path id="Vector" d="M5.65312 0.768722C5.4125 0.187472 4.77812 -0.121903 4.17188 0.0437222L1.42188 0.793722C0.878125 0.943722 0.5 1.43747 0.5 1.99997C0.5 9.73122 6.76875 16 14.5 16C15.0625 16 15.5563 15.6218 15.7063 15.0781L16.4563 12.3281C16.6219 11.7218 16.3125 11.0875 15.7312 10.8468L12.7312 9.59685C12.2219 9.38435 11.6313 9.53122 11.2844 9.95935L10.0219 11.5C7.82188 10.4593 6.04063 8.6781 5 6.4781L6.54063 5.21872C6.96875 4.86872 7.11562 4.28122 6.90312 3.77185L5.65312 0.771847V0.768722Z" fill="white"/>
</g>
<defs>
<clipPath id="clip0_666_209">
<rect width="16" height="16" fill="white" transform="translate(0.5)"/>
</clipPath>
</defs>
</svg>
