<svg width="18" height="17" viewBox="0 0 18 17" fill="none" xmlns="http://www.w3.org/2000/svg">
<path d="M7.31861 3.1875H4.94791H3.74595H3.35416V3.47969V4.78125V6.12266V9.07773L0.173297 6.72363C0.226422 6.12266 0.535211 5.56484 1.02662 5.20293L1.76041 4.6584V3.1875C1.76041 2.30762 2.47427 1.59375 3.35416 1.59375H5.89752L7.55435 0.368555C7.87642 0.129492 8.2649 0 8.66666 0C9.06841 0 9.45689 0.129492 9.77896 0.365234L11.4358 1.59375H13.9792C14.859 1.59375 15.5729 2.30762 15.5729 3.1875V4.6584L16.3067 5.20293C16.7981 5.56484 17.1069 6.12266 17.16 6.72363L13.9792 9.07773V6.12266V4.78125V3.47969V3.1875H13.5874H12.3854H10.0147H7.31861ZM0.166656 14.875V8.03848L7.39166 13.3908C7.76021 13.6631 8.20845 13.8125 8.66666 13.8125C9.12486 13.8125 9.5731 13.6664 9.94166 13.3908L17.1667 8.03848V14.875C17.1667 16.0471 16.2137 17 15.0417 17H2.29166C1.11959 17 0.166656 16.0471 0.166656 14.875ZM6.01041 5.3125H11.3229C11.6151 5.3125 11.8542 5.55156 11.8542 5.84375C11.8542 6.13594 11.6151 6.375 11.3229 6.375H6.01041C5.71822 6.375 5.47916 6.13594 5.47916 5.84375C5.47916 5.55156 5.71822 5.3125 6.01041 5.3125ZM6.01041 7.4375H11.3229C11.6151 7.4375 11.8542 7.67656 11.8542 7.96875C11.8542 8.26094 11.6151 8.5 11.3229 8.5H6.01041C5.71822 8.5 5.47916 8.26094 5.47916 7.96875C5.47916 7.67656 5.71822 7.4375 6.01041 7.4375Z" fill="#346AD2"/>
</svg>
