<svg width="20" height="21" viewBox="0 0 20 21" fill="none" xmlns="http://www.w3.org/2000/svg">
<path d="M19.8757 6.83454C20.0078 7.19144 19.8963 7.58937 19.6113 7.84372L17.823 9.46005C17.8684 9.80055 17.8932 10.1492 17.8932 10.5021C17.8932 10.8549 17.8684 11.2036 17.823 11.5441L19.6113 13.1604C19.8963 13.4147 20.0078 13.8127 19.8757 14.1696C19.6939 14.6577 19.475 15.1254 19.2231 15.5767L19.029 15.909C18.7564 16.3602 18.4508 16.7869 18.1162 17.1889C17.8726 17.4843 17.4678 17.5827 17.1044 17.4679L14.8039 16.7417C14.2504 17.1643 13.6392 17.5171 12.9866 17.7837L12.4704 20.1262C12.3878 20.4995 12.0987 20.7949 11.7187 20.8564C11.1487 20.9508 10.5623 21 9.96339 21C9.36452 21 8.77805 20.9508 8.20809 20.8564C7.82812 20.7949 7.53901 20.4995 7.45641 20.1262L6.94015 17.7837C6.28759 17.5171 5.67633 17.1643 5.1229 16.7417L2.82656 17.472C2.46311 17.5868 2.05835 17.4843 1.81468 17.193C1.48014 16.791 1.17451 16.3643 0.901924 15.9131L0.707808 15.5808C0.455872 15.1295 0.236976 14.6618 0.0552509 14.1737C-0.0769127 13.8168 0.0346003 13.4188 0.319578 13.1645L2.10792 11.5482C2.06248 11.2036 2.0377 10.8549 2.0377 10.5021C2.0377 10.1492 2.06248 9.80055 2.10792 9.46005L0.319578 7.84372C0.0346003 7.58937 -0.0769127 7.19144 0.0552509 6.83454C0.236976 6.34636 0.455872 5.87869 0.707808 5.42743L0.901924 5.09514C1.17451 4.64388 1.48014 4.21723 1.81468 3.8152C2.05835 3.51983 2.46311 3.42137 2.82656 3.53624L5.12703 4.26236C5.68046 3.83981 6.29172 3.48701 6.94428 3.22036L7.46054 0.877906C7.54314 0.504591 7.83225 0.209221 8.21222 0.147685C8.78218 0.0492283 9.36865 0 9.96752 0C10.5664 0 11.1529 0.0492284 11.7228 0.143583C12.1028 0.205118 12.3919 0.500488 12.4745 0.873803L12.9908 3.21625C13.6433 3.48291 14.2546 3.83571 14.808 4.25825L17.1085 3.53213C17.4719 3.41727 17.8767 3.51983 18.1204 3.8111C18.4549 4.21313 18.7605 4.63977 19.0331 5.09103L19.2272 5.42332C19.4792 5.87458 19.6981 6.34225 19.8798 6.83044L19.8757 6.83454ZM9.96752 13.7839C10.8438 13.7839 11.6842 13.4382 12.3039 12.8227C12.9235 12.2072 13.2716 11.3725 13.2716 10.5021C13.2716 9.63164 12.9235 8.79688 12.3039 8.1814C11.6842 7.56593 10.8438 7.22016 9.96752 7.22016C9.09122 7.22016 8.25081 7.56593 7.63117 8.1814C7.01154 8.79688 6.66343 9.63164 6.66343 10.5021C6.66343 11.3725 7.01154 12.2072 7.63117 12.8227C8.25081 13.4382 9.09122 13.7839 9.96752 13.7839Z" fill="#366AD2"/>
</svg>
