<svg width="26" height="26" viewBox="0 0 26 26" fill="none" xmlns="http://www.w3.org/2000/svg">
<rect width="25.971" height="25.971" rx="3.24638" fill="#B3D3FF"/>
<path d="M9.34174 18.9068C9.09124 18.9068 8.88627 18.7019 8.88627 18.4514V7.52012C8.88627 7.26961 9.09124 7.06465 9.34174 7.06465H13.8964V9.342C13.8964 9.84586 14.3035 10.2529 14.8074 10.2529H17.0847V18.4514C17.0847 18.7019 16.8798 18.9068 16.6292 18.9068H9.34174ZM9.34174 5.69824C8.33686 5.69824 7.51987 6.51524 7.51987 7.52012V18.4514C7.51987 19.4563 8.33686 20.2733 9.34174 20.2733H16.6292C17.6341 20.2733 18.4511 19.4563 18.4511 18.4514V10.0964C18.4511 9.61243 18.2604 9.14842 17.9188 8.80682L15.3397 6.23057C14.9981 5.88897 14.5369 5.69824 14.053 5.69824H9.34174ZM10.9359 12.9857C10.5573 12.9857 10.2527 13.2903 10.2527 13.669C10.2527 14.0476 10.5573 14.3522 10.9359 14.3522H15.0351C15.4137 14.3522 15.7183 14.0476 15.7183 13.669C15.7183 13.2903 15.4137 12.9857 15.0351 12.9857H10.9359ZM10.9359 15.7186C10.5573 15.7186 10.2527 16.0232 10.2527 16.4018C10.2527 16.7804 10.5573 17.085 10.9359 17.085H15.0351C15.4137 17.085 15.7183 16.7804 15.7183 16.4018C15.7183 16.0232 15.4137 15.7186 15.0351 15.7186H10.9359Z" fill="white"/>
<path d="M15.6011 20.9993L15.6406 20.9935L15.6011 20.9993ZM15.6011 20.9993C15.5829 21.0021 15.5643 21.0012 15.5466 20.9968L15.6011 20.9993ZM22.2616 12.5092L22.2954 12.5863L22.2616 12.5092C22.2044 12.5342 22.1518 12.5696 22.1068 12.6141L22.0388 12.6242L22.0606 12.6666L21.2157 13.7411L20.8407 13.6065L20.6189 13.3366L21.4504 12.2847L21.4507 12.2842C21.5047 12.2158 21.541 12.1335 21.554 12.0446L21.554 12.0446C21.5669 11.9555 21.5556 11.8646 21.521 11.7814L21.5211 11.7814L21.518 11.7743C21.4821 11.6928 21.4258 11.6236 21.3564 11.572C21.2872 11.5205 21.2071 11.4879 21.1241 11.4754L21.1228 11.4752C20.6785 11.4096 20.2221 11.462 19.8036 11.6266C19.385 11.7912 19.0186 12.0625 18.7461 12.4126C18.4735 12.7629 18.3056 13.1788 18.264 13.6149C18.2301 13.9701 18.2813 14.3256 18.4121 14.6549L15.5644 18.2607C15.2852 18.2723 15.0097 18.3368 14.7542 18.4511C14.4397 18.5918 14.1637 18.8042 13.952 19.0712L13.9513 19.072C13.6143 19.4995 13.4648 20.0385 13.5433 20.5709C13.6217 21.1032 13.9205 21.5762 14.3665 21.8882C14.8117 22.1996 15.3677 22.3261 15.912 22.2459C16.4563 22.1656 16.9521 21.8841 17.2886 21.4574L17.2893 21.4565C17.4995 21.188 17.6385 20.8734 17.6913 20.5402C17.733 20.2776 17.7199 20.011 17.6537 19.7557L20.494 16.1375C20.8669 16.1639 21.2434 16.1086 21.5943 15.9747C22.0139 15.8146 22.3826 15.5476 22.6585 15.201C22.9345 14.8542 23.107 14.4408 23.1537 14.006C23.1827 13.7359 23.1624 13.465 23.0949 13.2051L23.1649 13.1948L22.923 12.7388C22.8821 12.6617 22.8226 12.5977 22.7518 12.5511C22.6811 12.5047 22.601 12.4769 22.519 12.4683L22.519 12.4682L22.5105 12.4675C22.4255 12.4606 22.3398 12.4749 22.2616 12.5092ZM15.611 20.6077L15.2612 20.3631L15.3063 20.0669L15.6327 19.9196L15.9767 20.1618L15.9302 20.4655L15.611 20.6077Z" fill="#2F80ED" stroke="#B2D3FF" stroke-width="0.728751"/>
</svg>
