<svg width="26" height="27" viewBox="0 0 26 27" fill="none" xmlns="http://www.w3.org/2000/svg">
<rect y="0.913086" width="25.971" height="25.971" rx="3.24638" fill="#B3D3FF"/>
<path d="M9.34174 19.8199C9.09124 19.8199 8.88627 19.615 8.88627 19.3645V8.4332C8.88627 8.1827 9.09124 7.97774 9.34174 7.97774H13.8964V10.2551C13.8964 10.7589 14.3035 11.166 14.8074 11.166H17.0847V19.3645C17.0847 19.615 16.8798 19.8199 16.6292 19.8199H9.34174ZM9.34174 6.61133C8.33686 6.61133 7.51987 7.42833 7.51987 8.4332V19.3645C7.51987 20.3693 8.33686 21.1863 9.34174 21.1863H16.6292C17.6341 21.1863 18.4511 20.3693 18.4511 19.3645V11.0095C18.4511 10.5255 18.2604 10.0615 17.9188 9.7199L15.3397 7.14366C14.9981 6.80206 14.5369 6.61133 14.053 6.61133H9.34174ZM10.9359 13.8988C10.5573 13.8988 10.2527 14.2034 10.2527 14.582C10.2527 14.9606 10.5573 15.2652 10.9359 15.2652H15.0351C15.4137 15.2652 15.7183 14.9606 15.7183 14.582C15.7183 14.2034 15.4137 13.8988 15.0351 13.8988H10.9359ZM10.9359 16.6316C10.5573 16.6316 10.2527 16.9362 10.2527 17.3149C10.2527 17.6935 10.5573 17.9981 10.9359 17.9981H15.0351C15.4137 17.9981 15.7183 17.6935 15.7183 17.3149C15.7183 16.9362 15.4137 16.6316 15.0351 16.6316H10.9359Z" fill="white"/>
</svg>
