<svg width="51" height="52" viewBox="0 0 51 52" fill="none" xmlns="http://www.w3.org/2000/svg">
    <path d="M19 21.5C21.8795 21.5 24.6411 20.3674 26.6772 18.3514C28.7133 16.3354 29.8571 13.6011 29.8571 10.75C29.8571 7.89892 28.7133 5.16462 26.6772 3.1486C24.6411 1.13259 21.8795 0 19 0C16.1205 0 13.3589 1.13259 11.3228 3.1486C9.28673 5.16462 8.14286 7.89892 8.14286 10.75C8.14286 13.6011 9.28673 16.3354 11.3228 18.3514C13.3589 20.3674 16.1205 21.5 19 21.5ZM15.1237 25.5312C6.76875 25.5312 0 32.2332 0 40.5057C0 41.883 1.12813 43 2.5192 43H35.4808C36.8719 43 38 41.883 38 40.5057C38 32.2332 31.2313 25.5312 22.8763 25.5312H15.1237Z" fill="#2F80ED"/>
    <mask id="path-2-outside-1_0_1" maskUnits="userSpaceOnUse" x="22" y="24" width="29" height="28" fill="black">
        <rect fill="white" x="22" y="24" width="29" height="28"/>
        <path d="M47.7701 29.5698C47.7501 29.5102 47.7156 29.4565 47.6698 29.4133C47.624 29.3702 47.5682 29.339 47.5075 29.3226C47.4476 29.3079 47.3849 29.3092 47.3256 29.3263C47.2664 29.3434 47.2126 29.3757 47.1698 29.42L44.2658 32.3271L42.6224 31.398L41.6844 29.7496L44.5959 26.85C44.6403 26.8056 44.6726 26.7507 44.6897 26.6903C44.7067 26.63 44.7081 26.5663 44.6935 26.5053C44.6776 26.4443 44.6466 26.3883 44.6033 26.3425C44.5601 26.2967 44.5059 26.2625 44.4459 26.2431C43.543 25.9551 42.5779 25.9223 41.6575 26.1485C40.7371 26.3746 39.8974 26.8508 39.2315 27.5243C38.5656 28.1977 38.0994 29.0422 37.8847 29.964C37.67 30.8858 37.7151 31.8489 38.015 32.7467L29.1228 41.6105C28.431 41.4681 27.7147 41.4989 27.0377 41.7002C26.3607 41.9016 25.7442 42.2672 25.2433 42.7644C24.4472 43.5593 24 44.6374 24 45.7615C24 46.8856 24.4472 47.9637 25.2433 48.7586C26.0394 49.5534 27.1191 50 28.2449 50C29.3707 50 30.4504 49.5534 31.2464 48.7586C31.7442 48.2584 32.1097 47.6426 32.3101 46.9664C32.5105 46.2902 32.5396 45.575 32.3945 44.8849L41.2642 35.991C42.1622 36.2879 43.125 36.3307 44.0459 36.1149C44.9669 35.8991 45.81 35.433 46.482 34.7682C47.154 34.1034 47.6286 33.2659 47.8533 32.3484C48.078 31.4309 48.044 30.4692 47.7551 29.5698H47.7701ZM30.1058 45.5367L29.6856 46.9828C29.6706 47.0384 29.6412 47.0892 29.6003 47.1299C29.5595 47.1707 29.5087 47.2 29.453 47.2151L28.0348 47.6347H27.9372C27.8921 47.6349 27.8474 47.6257 27.806 47.6077C27.7646 47.5896 27.7275 47.5631 27.6971 47.5298L26.4664 46.301C26.4226 46.258 26.3917 46.2037 26.3771 46.1441C26.3625 46.0845 26.3649 46.0221 26.3839 45.9638L26.7966 44.5402C26.8146 44.4869 26.8451 44.4387 26.8856 44.3996C26.926 44.3605 26.9753 44.3316 27.0292 44.3154L28.4475 43.8883C28.5079 43.8728 28.5713 43.873 28.6317 43.8887C28.6921 43.9044 28.7475 43.9352 28.7927 43.9782L30.0083 45.1995C30.054 45.2414 30.0873 45.295 30.1045 45.3545C30.1217 45.4139 30.1222 45.477 30.1058 45.5367Z"/>
    </mask>
    <path d="M47.7701 29.5698C47.7501 29.5102 47.7156 29.4565 47.6698 29.4133C47.624 29.3702 47.5682 29.339 47.5075 29.3226C47.4476 29.3079 47.3849 29.3092 47.3256 29.3263C47.2664 29.3434 47.2126 29.3757 47.1698 29.42L44.2658 32.3271L42.6224 31.398L41.6844 29.7496L44.5959 26.85C44.6403 26.8056 44.6726 26.7507 44.6897 26.6903C44.7067 26.63 44.7081 26.5663 44.6935 26.5053C44.6776 26.4443 44.6466 26.3883 44.6033 26.3425C44.5601 26.2967 44.5059 26.2625 44.4459 26.2431C43.543 25.9551 42.5779 25.9223 41.6575 26.1485C40.7371 26.3746 39.8974 26.8508 39.2315 27.5243C38.5656 28.1977 38.0994 29.0422 37.8847 29.964C37.67 30.8858 37.7151 31.8489 38.015 32.7467L29.1228 41.6105C28.431 41.4681 27.7147 41.4989 27.0377 41.7002C26.3607 41.9016 25.7442 42.2672 25.2433 42.7644C24.4472 43.5593 24 44.6374 24 45.7615C24 46.8856 24.4472 47.9637 25.2433 48.7586C26.0394 49.5534 27.1191 50 28.2449 50C29.3707 50 30.4504 49.5534 31.2464 48.7586C31.7442 48.2584 32.1097 47.6426 32.3101 46.9664C32.5105 46.2902 32.5396 45.575 32.3945 44.8849L41.2642 35.991C42.1622 36.2879 43.125 36.3307 44.0459 36.1149C44.9669 35.8991 45.81 35.433 46.482 34.7682C47.154 34.1034 47.6286 33.2659 47.8533 32.3484C48.078 31.4309 48.044 30.4692 47.7551 29.5698H47.7701ZM30.1058 45.5367L29.6856 46.9828C29.6706 47.0384 29.6412 47.0892 29.6003 47.1299C29.5595 47.1707 29.5087 47.2 29.453 47.2151L28.0348 47.6347H27.9372C27.8921 47.6349 27.8474 47.6257 27.806 47.6077C27.7646 47.5896 27.7275 47.5631 27.6971 47.5298L26.4664 46.301C26.4226 46.258 26.3917 46.2037 26.3771 46.1441C26.3625 46.0845 26.3649 46.0221 26.3839 45.9638L26.7966 44.5402C26.8146 44.4869 26.8451 44.4387 26.8856 44.3996C26.926 44.3605 26.9753 44.3316 27.0292 44.3154L28.4475 43.8883C28.5079 43.8728 28.5713 43.873 28.6317 43.8887C28.6921 43.9044 28.7475 43.9352 28.7927 43.9782L30.0083 45.1995C30.054 45.2414 30.0873 45.295 30.1045 45.3545C30.1217 45.4139 30.1222 45.477 30.1058 45.5367Z" fill="#2F80ED"/>
    <path d="M47.7701 29.5698V31.5698H50.552L49.666 28.9328L47.7701 29.5698ZM47.5075 29.3226L48.0303 27.3921L48.0067 27.3857L47.983 27.3799L47.5075 29.3226ZM47.1698 29.42L48.5848 30.8334L48.5962 30.822L48.6075 30.8103L47.1698 29.42ZM44.2658 32.3271L43.2815 34.0681L44.6057 34.8168L45.6808 33.7406L44.2658 32.3271ZM42.6224 31.398L40.8841 32.3872L41.1573 32.8672L41.6381 33.139L42.6224 31.398ZM41.6844 29.7496L40.2731 28.3325L39.1905 29.4108L39.9461 30.7388L41.6844 29.7496ZM44.5959 26.85L46.0073 28.2671L46.0097 28.2646L44.5959 26.85ZM44.6935 26.5053L46.6388 26.0407L46.6341 26.0212L46.6291 26.0017L44.6935 26.5053ZM44.4459 26.2431L45.0608 24.3399L45.0537 24.3377L44.4459 26.2431ZM38.015 32.7467L39.427 34.1632L40.3046 33.2883L39.9119 32.113L38.015 32.7467ZM29.1228 41.6105L28.7194 43.5694L29.7729 43.7864L30.5348 43.027L29.1228 41.6105ZM25.2433 42.7644L23.8344 41.3449L23.8301 41.3491L25.2433 42.7644ZM24 45.7615H22H24ZM31.2464 48.7586L32.6596 50.1739L32.664 50.1694L31.2464 48.7586ZM32.3945 44.8849L30.9784 43.4726L30.215 44.2381L30.4373 45.2961L32.3945 44.8849ZM41.2642 35.991L41.8919 34.0921L40.7198 33.7047L39.8481 34.5788L41.2642 35.991ZM47.7551 29.5698V27.5698H45.012L45.8509 30.1815L47.7551 29.5698ZM30.1058 45.5367L32.0264 46.0948L32.0309 46.0792L32.0352 46.0635L30.1058 45.5367ZM29.6856 46.9828L27.7651 46.4247L27.7599 46.4425L27.7551 46.4604L29.6856 46.9828ZM29.453 47.2151L28.9321 45.2841L28.9088 45.2904L28.8856 45.2972L29.453 47.2151ZM28.0348 47.6347V49.6347H28.3244L28.6022 49.5525L28.0348 47.6347ZM27.9372 47.6347V45.6346L27.9256 45.6347L27.9372 47.6347ZM27.6971 47.5298L29.1728 46.1799L29.1423 46.1465L29.1102 46.1145L27.6971 47.5298ZM26.4664 46.301L27.8796 44.8857L27.8734 44.8795L27.8672 44.8734L26.4664 46.301ZM26.3839 45.9638L28.2854 46.5836L28.2956 46.5523L28.3048 46.5207L26.3839 45.9638ZM26.7966 44.5402L24.9016 43.9007L24.8878 43.9417L24.8757 43.9833L26.7966 44.5402ZM27.0292 44.3154L27.6046 46.2309L27.6059 46.2305L27.0292 44.3154ZM28.4475 43.8883L27.9509 41.951L27.9106 41.9613L27.8708 41.9733L28.4475 43.8883ZM28.7927 43.9782L30.2102 42.5673L30.1912 42.5483L30.1718 42.5298L28.7927 43.9782ZM30.0083 45.1995L28.5908 46.6105L28.6234 46.6433L28.6576 46.6745L30.0083 45.1995ZM49.666 28.9328C49.541 28.5609 49.3262 28.2258 49.0408 27.9571L46.2989 30.8695C46.1051 30.6871 45.9592 30.4595 45.8743 30.2068L49.666 28.9328ZM49.0408 27.9571C48.7554 27.6884 48.4083 27.4945 48.0303 27.3921L46.9846 31.253C46.7282 31.1836 46.4926 31.0519 46.2989 30.8695L49.0408 27.9571ZM47.983 27.3799C47.5839 27.2822 47.1661 27.2907 46.7713 27.4046L47.8799 31.2479C47.6036 31.3276 47.3113 31.3336 47.032 31.2652L47.983 27.3799ZM46.7713 27.4046C46.3765 27.5185 46.0181 27.7339 45.7321 28.0296L48.6075 30.8103C48.4072 31.0174 48.1563 31.1682 47.8799 31.2479L46.7713 27.4046ZM45.7548 28.0065L42.8508 30.9137L45.6808 33.7406L48.5848 30.8334L45.7548 28.0065ZM45.2501 30.5861L43.6067 29.657L41.6381 33.139L43.2815 34.0681L45.2501 30.5861ZM44.3607 30.4089L43.4227 28.7605L39.9461 30.7388L40.8841 32.3872L44.3607 30.4089ZM43.0957 31.1667L46.0073 28.2671L43.1846 25.4329L40.2731 28.3325L43.0957 31.1667ZM46.0097 28.2646C46.2957 27.9788 46.5039 27.6244 46.6141 27.235L42.7653 26.1456C42.8413 25.8769 42.985 25.6324 43.1822 25.4353L46.0097 28.2646ZM46.6141 27.235C46.7243 26.8456 46.7328 26.4344 46.6388 26.0407L42.7482 26.9699C42.6833 26.6982 42.6892 26.4144 42.7653 26.1456L46.6141 27.235ZM46.6291 26.0017C46.5284 25.6148 46.3317 25.2598 46.0575 24.9694L43.1492 27.7156C42.9615 27.5169 42.8269 27.2738 42.7579 27.0089L46.6291 26.0017ZM46.0575 24.9694C45.7833 24.679 45.4404 24.4626 45.0608 24.3399L43.831 28.1462C43.5714 28.0623 43.3368 27.9143 43.1492 27.7156L46.0575 24.9694ZM45.0537 24.3377C43.7994 23.9376 42.4588 23.8921 41.1803 24.2062L42.1347 28.0907C42.697 27.9525 43.2866 27.9726 43.8381 28.1485L45.0537 24.3377ZM41.1803 24.2062C39.9018 24.5204 38.735 25.1819 37.8094 26.118L40.6537 28.9305C41.0599 28.5196 41.5725 28.2288 42.1347 28.0907L41.1803 24.2062ZM37.8094 26.118C36.8837 27.0541 36.2355 28.2282 35.9368 29.5102L39.8325 30.4177C39.9634 29.8561 40.2474 29.3413 40.6537 28.9305L37.8094 26.118ZM35.9368 29.5102C35.6382 30.7923 35.7009 32.1319 36.1181 33.3804L39.9119 32.113C39.7292 31.566 39.7017 30.9792 39.8325 30.4177L35.9368 29.5102ZM36.603 31.3302L27.7109 40.1941L30.5348 43.027L39.427 34.1632L36.603 31.3302ZM29.5263 39.6517C28.5115 39.4427 27.4606 39.4878 26.4675 39.7832L27.6079 43.6172C27.9687 43.5099 28.3506 43.4935 28.7194 43.5694L29.5263 39.6517ZM26.4675 39.7832C25.4744 40.0786 24.5697 40.6151 23.8344 41.345L26.6522 44.1839C26.9188 43.9193 27.2471 43.7245 27.6079 43.6172L26.4675 39.7832ZM23.8301 41.3491C22.6587 42.5189 22 44.106 22 45.7615H26C26 45.1688 26.2358 44.5997 26.6564 44.1797L23.8301 41.3491ZM22 45.7615C22 47.417 22.6587 49.0041 23.8301 50.1738L26.6564 47.3433C26.2358 46.9233 26 46.3542 26 45.7615H22ZM23.8301 50.1738C25.0015 51.3435 26.5896 52 28.2449 52V48C27.6485 48 27.0772 47.7634 26.6564 47.3433L23.8301 50.1738ZM28.2449 52C29.9001 52 31.4882 51.3435 32.6596 50.1738L29.8333 47.3433C29.4125 47.7634 28.8412 48 28.2449 48V52ZM32.664 50.1694C33.3956 49.4343 33.933 48.529 34.2277 47.5347L30.3926 46.3981C30.2865 46.7561 30.0929 47.0825 29.8288 47.3477L32.664 50.1694ZM34.2277 47.5347C34.5224 46.5404 34.5651 45.4885 34.3518 44.4736L30.4373 45.2961C30.514 45.6614 30.4987 46.0401 30.3926 46.3981L34.2277 47.5347ZM33.8107 46.2971L42.6803 37.4033L39.8481 34.5788L30.9784 43.4726L33.8107 46.2971ZM40.6365 37.89C41.8846 38.3025 43.2225 38.3621 44.5023 38.0621L43.5896 34.1677C43.0275 34.2994 42.4399 34.2732 41.8919 34.0921L40.6365 37.89ZM44.5023 38.0621C45.7821 37.7622 46.9542 37.1144 47.8885 36.19L45.0754 33.3464C44.6658 33.7515 44.1516 34.0359 43.5896 34.1677L44.5023 38.0621ZM47.8885 36.19C48.823 35.2656 49.4833 34.1007 49.7959 32.8242L45.9107 31.8727C45.7739 32.4311 45.485 32.9412 45.0754 33.3464L47.8885 36.19ZM49.7959 32.8242C50.1085 31.5476 50.0612 30.2095 49.6593 28.9581L45.8509 30.1815C46.0268 30.7289 46.0475 31.3142 45.9107 31.8727L49.7959 32.8242ZM47.7551 31.5698H47.7701V27.5698H47.7551V31.5698ZM28.1853 44.9786L27.7651 46.4247L31.6062 47.5409L32.0264 46.0948L28.1853 44.9786ZM27.7551 46.4604C27.8315 46.178 27.9806 45.921 28.1872 45.7147L31.0135 48.5452C31.3017 48.2574 31.5097 47.8989 31.6162 47.5052L27.7551 46.4604ZM28.1872 45.7147C28.3938 45.5084 28.6507 45.36 28.9321 45.2841L29.9739 49.146C30.3668 49.0401 30.7253 48.833 31.0135 48.5452L28.1872 45.7147ZM28.8856 45.2972L27.4674 45.7168L28.6022 49.5525L30.0204 49.1329L28.8856 45.2972ZM28.0348 45.6347H27.9372V49.6347H28.0348V45.6347ZM27.9256 45.6347C28.1598 45.6333 28.3918 45.6811 28.6066 45.7749L27.0054 49.4404C27.3029 49.5704 27.6243 49.6365 27.9488 49.6346L27.9256 45.6347ZM28.6066 45.7749C28.8215 45.8687 29.0144 46.0067 29.1728 46.1799L26.2214 48.8797C26.4407 49.1194 26.7078 49.3104 27.0054 49.4404L28.6066 45.7749ZM29.1102 46.1145L27.8796 44.8857L25.0533 47.7162L26.2839 48.945L29.1102 46.1145ZM27.8672 44.8734C28.0889 45.091 28.2458 45.3663 28.3198 45.6685L24.4345 46.6197C24.5377 47.0411 24.7564 47.425 25.0657 47.7285L27.8672 44.8734ZM28.3198 45.6685C28.3938 45.9708 28.3819 46.2877 28.2854 46.5836L24.4824 45.344C24.3479 45.7565 24.3313 46.1983 24.4345 46.6197L28.3198 45.6685ZM28.3048 46.5207L28.7175 45.0971L24.8757 43.9833L24.463 45.4069L28.3048 46.5207ZM28.6916 45.1797C28.6074 45.4294 28.4645 45.655 28.2753 45.8378L25.4958 42.9613C25.2257 43.2224 25.0218 43.5444 24.9016 43.9007L28.6916 45.1797ZM28.2753 45.8378C28.0861 46.0206 27.8561 46.1553 27.6046 46.2309L26.4539 42.4C26.0945 42.5079 25.7659 42.7003 25.4958 42.9613L28.2753 45.8378ZM27.6059 46.2305L29.0242 45.8034L27.8708 41.9733L26.4525 42.4004L27.6059 46.2305ZM28.9441 45.8257C28.6762 45.8944 28.3952 45.8938 28.1276 45.8241L29.1359 41.9533C28.7474 41.8521 28.3397 41.8513 27.9509 41.951L28.9441 45.8257ZM28.1276 45.8241C27.8599 45.7544 27.6142 45.6177 27.4135 45.4267L30.1718 42.5298C29.8808 42.2527 29.5243 42.0544 29.1359 41.9533L28.1276 45.8241ZM27.3752 45.3892L28.5908 46.6105L31.4258 43.7886L30.2102 42.5673L27.3752 45.3892ZM28.6576 46.6745C28.4325 46.4684 28.2683 46.2041 28.1833 45.9103L32.0257 44.7986C31.9063 44.3859 31.6755 44.0144 31.359 43.7246L28.6576 46.6745ZM28.1833 45.9103C28.0983 45.6165 28.0959 45.305 28.1765 45.01L32.0352 46.0635C32.1484 45.649 32.1451 45.2113 32.0257 44.7986L28.1833 45.9103Z" fill="white" mask="url(#path-2-outside-1_0_1)"/>
</svg>
